<svg version="1.1" xmlns="http://www.w3.org/2000/svg" xmlns:xlink="http://www.w3.org/1999/xlink" preserveAspectRatio="xMidYMid meet" viewBox="741 318 135 165" id="graph"><g data-item-type="text" data-item="Business" id="logo__item--business" class="logo__item">
                <g class="logo__item__inner" transform="translate(742.6640625 480.59704858117726) scale(1 1) rotate(0 0 0)">
                    <text data-part-id="logo__item--business" dy="0" dominant-baseline="auto" alignment-baseline="auto" font-family="Montserrat" font-size="32px" fill="#4CAF50" letter-spacing="0" font-weight="bold" font-style="normal" data-font-family="Montserrat" data-font-weight="bold" data-font-style="normal" data-ttf-url="/builder_assets/fontsttf/font-montserrat-bold-normal.ttf">harTack</text>
                </g>
            </g><g data-item-type="image" data-item="Image" data-logo-item="" id="logo__item--logo_0" class="logo__item">
    <g class="logo__item__inner" transform="translate(739.8359023318942 316.5) scale(1.3019279719116827 1.3019279719116827) rotate(0 0 0)">
        
<g>
<!-- 	<radialGradient id="SVGID_1_" cx="44.0562" cy="40.5361" r="84.2732" gradientUnits="userSpaceOnUse">
		<stop offset="0" style="stop-color:#00A69C"/>
		<stop offset="1" style="stop-color:#00423D"/>
	</radialGradient> -->
	<path fill="#4CAF50;" d="M22.927,35.061c0.21-0.113,0.631-0.332,0.85-0.447c2.216-1.191,4.346-2.541,6.571-3.714   c0.027-2.629,0-5.249-0.044-7.876c0.079-3.215,0.036-6.439,0.018-9.646v-0.578c-2.506,1.314-4.889,2.83-7.359,4.17   c-0.036,1.954-0.043,3.908-0.036,5.853C22.979,26.905,22.901,30.987,22.927,35.061z" data-part-id="logo__item--logo_0__0"/>
<!-- 	<radialGradient id="SVGID_2_" cx="44.0596" cy="40.5381" r="84.3107" gradientUnits="userSpaceOnUse">
		<stop offset="0" style="stop-color:#00A69C"/>
		<stop offset="1" style="stop-color:#00423D"/>
	</radialGradient> -->
	<path fill="#4CAF50;" d="M34.913,28.228c2.506-1.499,5.073-2.891,7.552-4.424c-0.035-1.683-0.052-3.356-0.018-5.029   c-0.026-1.604-0.018-3.207-0.018-4.819c0.018-2.725,0-5.458-0.017-8.184c-2.523,1.394-4.994,2.882-7.509,4.311   c0,2.427,0,4.854-0.026,7.28c0.026,1.297,0.018,2.594,0.018,3.89C34.922,23.575,34.851,25.897,34.913,28.228z" data-part-id="logo__item--logo_0__1"/>
<!-- 	<radialGradient id="SVGID_3_" cx="44.0469" cy="40.5391" r="84.2919" gradientUnits="userSpaceOnUse">
		<stop offset="0" style="stop-color:#00A69C"/>
		<stop offset="1" style="stop-color:#00423D"/>
	</radialGradient> -->
	<path fill="#4CAF50;" d="M89.312,69.906c-0.008-2.709-0.008-5.406-0.025-8.105c-2.506,1.42-5.029,2.85-7.5,4.338   c0.018,2.873-0.034,5.738,0,8.613c-0.009,1.84,0,3.68-0.017,5.51c2.522-1.348,4.933-2.9,7.481-4.205   C89.383,74.008,89.269,71.955,89.312,69.906z" data-part-id="logo__item--logo_0__2"/>
<!-- 	<radialGradient id="SVGID_4_" cx="44.0562" cy="40.5317" r="84.2834" gradientUnits="userSpaceOnUse">
		<stop offset="0" style="stop-color:#00A69C"/>
		<stop offset="1" style="stop-color:#00423D"/>
	</radialGradient> -->
	<path fill="#4CAF50;" d="M10.819,33.695c0.07,2.795-0.018,5.581,0.026,8.375c2.523-1.376,4.951-2.927,7.491-4.249   c0.07-2.717-0.018-5.424,0.035-8.139c-0.017-1.569,0-3.137,0-4.705c0-1.762-0.017-3.522,0-5.275   c-2.155,1.086-4.188,2.392-6.308,3.54c-0.412,0.298-1.017,0.447-1.209,0.981c-0.07,1.472,0,2.944,0,4.424   C10.836,30.331,10.854,32.012,10.819,33.695z" data-part-id="logo__item--logo_0__3"/>
<!-- 	<radialGradient id="SVGID_5_" cx="44.0571" cy="40.5283" r="84.2971" gradientUnits="userSpaceOnUse">
		<stop offset="0" style="stop-color:#00A69C"/>
		<stop offset="1" style="stop-color:#00423D"/>
	</radialGradient> -->
	<path fill="#4CAF50" d="M89.269,37.847c0.01-3.312,0.192-6.658-0.07-9.961c-3.268-1.893-6.518-3.82-9.821-5.625   c-0.009,4.529-0.044,9.042,0.044,13.572c-0.122,4.801-0.026,9.62,0,14.429c-7.465,4.347-32.242,18.531-36.272,20.931   c-0.824,0.465-0.351,1.596-0.508,2.365c0.043,4.172,0.333,13.809,0.333,17.094c3.153,1.832,6.291,3.688,9.497,5.434   c0.026-2.016,0-4.031,0.018-6.037c0.034-4.338-0.08-8.674,0.034-13.01c1.122-0.291,33.855-19.506,36.781-22.213   C89.269,49.168,89.374,43.508,89.269,37.847z" data-part-id="logo__item--logo_0__4"/>
<!-- 	<radialGradient id="SVGID_6_" cx="44.0625" cy="40.5361" r="84.2959" gradientUnits="userSpaceOnUse">
		<stop offset="0" style="stop-color:#00A69C"/>
		<stop offset="1" style="stop-color:#00423D"/>
	</radialGradient> -->
	<path fill="#4CAF50" d="M57.28,33.249c0-0.079,0.079-21.966,0.132-23.691c-3.26-1.919-6.554-3.776-9.839-5.643   c-0.027,2.997-0.018,21.676,0.035,24.313c-1.937,1.069-35.212,19.451-36.947,20.485c0.035,0.849,0.043,1.699,0.07,2.549   c0,3.084-0.088,6.186,0.035,9.26c-0.105,3.873-0.053,7.746-0.035,11.617c3.364,1.754,6.544,3.857,9.927,5.592   c-0.044-4.074,0.061-8.131-0.062-12.195c0.14-3.471-0.018-6.949,0.07-10.418c0.035-0.229,0.088-0.658,0.105-0.875   C22.191,53.443,56.667,33.581,57.28,33.249z" data-part-id="logo__item--logo_0__5"/>
<!-- 	<radialGradient id="SVGID_7_" cx="44.062" cy="40.5337" r="84.2876" gradientUnits="userSpaceOnUse">
		<stop offset="0" style="stop-color:#00A69C"/>
		<stop offset="1" style="stop-color:#00423D"/>
	</radialGradient> -->
	<path fill="#4CAF50;" d="M42.781,62.205c2.207-1.254,4.38-2.586,6.606-3.83c1.577-0.893,3.135-1.84,4.712-2.725   c4.749-2.715,9.463-5.501,14.229-8.183c1.682-0.929,3.259-2.007,4.994-2.83l-0.018-0.298c0.053-3.803,0.035-7.605,0.043-11.407   c-0.008-3.365-0.025-6.712,0.01-10.067c0.008-1.411-0.018-2.83-0.123-4.24c-3.295-1.691-6.325-3.847-9.69-5.38   c-0.034,1.98-0.018,3.96-0.026,5.949c0.009,3.005-0.008,6.019,0.026,9.033c-0.018,3.539-0.052,7.071,0.035,10.61   c-5.117,3.041-35.046,20.143-36.43,20.906c-0.763,0.463-0.359,1.488-0.465,2.215c0.062,1.332-0.079,14.08,0.044,15.508   c-0.053,1.262-0.053,2.541-0.044,3.811c3.355,1.752,6.457,3.986,9.909,5.529c0.036-1.857,0.018-3.705,0.027-5.564   c0-1.217,0.009-2.443,0.025-3.652c-0.035-2.365-0.035-4.74-0.035-7.115c0-1.611-0.018-3.223,0.035-4.818   C38.75,64.605,40.695,63.281,42.781,62.205z" data-part-id="logo__item--logo_0__6"/>
<!-- 	<radialGradient id="SVGID_8_" cx="44.0581" cy="40.5317" r="84.2965" gradientUnits="userSpaceOnUse">
		<stop offset="0" style="stop-color:#00A69C"/>
		<stop offset="1" style="stop-color:#00423D"/>
	</radialGradient> -->
	<path fill="#4CAF50;" d="M77.205,68.82c-2.524,1.27-4.881,2.838-7.387,4.17c-0.019,4.283-0.009,8.576-0.052,12.852   c-0.027,0.527,0.052,1.027,0.262,1.525l0.019-0.332c2.417-1.279,4.713-2.787,7.131-4.039c0.07-1.867,0.027-3.74,0.035-5.6   C77.23,74.523,77.213,71.676,77.205,68.82z" data-part-id="logo__item--logo_0__7"/>
<!-- 	<radialGradient id="SVGID_9_" cx="44.0718" cy="40.519" r="84.3109" gradientUnits="userSpaceOnUse">
		<stop offset="0" style="stop-color:#00A69C"/>
		<stop offset="1" style="stop-color:#00423D"/>
	</radialGradient> -->
	<path fill="#4CAF50;" d="M65.245,75.707c-2.559,1.322-4.959,2.916-7.518,4.238c-0.035,2.885,0,5.775-0.018,8.666   c0.018,1.84-0.018,3.68,0.018,5.529c2.531-1.367,4.977-2.893,7.518-4.26c0.018-2.145-0.018-4.293-0.01-6.438   C65.245,80.867,65.245,78.291,65.245,75.707z" data-part-id="logo__item--logo_0__8"/>
</g>

    </g>
</g></svg>